<?xml version="1.0" standalone="no"?><!DOCTYPE svg PUBLIC "-//W3C//DTD SVG 1.1//EN" "http://www.w3.org/Graphics/SVG/1.1/DTD/svg11.dtd"><svg width="100%" height="100%" viewBox="0 0 102 102" version="1.1" xmlns="http://www.w3.org/2000/svg" xmlns:xlink="http://www.w3.org/1999/xlink" xml:space="preserve" style="fill-rule:evenodd;clip-rule:evenodd;stroke-linecap:round;stroke-linejoin:round;stroke-miterlimit:1.41421;"><path id="Handle" d="M1.803,91.116c0.054,-0.054 32.969,-32.763 32.969,-32.763c0,0 0.137,1.593 3.486,4.995c3.349,3.403 4.704,3.624 4.704,3.624c0,0 -32.71,32.555 -32.728,32.573c-2.372,2.372 -6.186,2.41 -8.513,0.084c-2.326,-2.326 -2.29,-6.14 0.082,-8.513Z" style="fill:#4a4a4a;"/><g id="Gear"><path d="M73.559,50.042c-0.205,0.579 -0.439,1.143 -0.702,1.691l3.453,3.453c-0.913,1.549 -2.035,3.009 -3.365,4.339c-1.465,1.465 -3.088,2.678 -4.815,3.637l-3.351,-3.351c-0.548,0.262 -1.112,0.497 -1.691,0.701l0,4.882c-1.741,0.45 -3.566,0.689 -5.447,0.689c-2.072,0 -4.077,-0.29 -5.977,-0.833l0,-4.738c-0.578,-0.204 -1.142,-0.439 -1.69,-0.701l-3.453,3.453c-1.549,-0.913 -3.009,-2.035 -4.339,-3.365c-1.466,-1.465 -2.678,-3.088 -3.638,-4.815l3.352,-3.351c-0.263,-0.548 -0.498,-1.113 -0.702,-1.691l-4.738,0c-0.542,-1.899 -0.833,-3.904 -0.833,-5.977c0,-1.88 0.239,-3.706 0.689,-5.447l4.882,0c0.204,-0.578 0.439,-1.142 0.702,-1.69l-3.352,-3.352c0.96,-1.726 2.172,-3.349 3.638,-4.815c1.33,-1.33 2.79,-2.451 4.339,-3.365l3.453,3.453c0.548,-0.262 1.112,-0.497 1.69,-0.701l0,-4.738c1.899,-0.543 3.905,-0.833 5.977,-0.833c1.881,0 3.706,0.239 5.447,0.689l0,4.882c0.579,0.204 1.143,0.439 1.691,0.701l3.351,-3.351c1.727,0.96 3.35,2.172 4.815,3.637c1.33,1.33 2.452,2.79 3.365,4.339l-3.453,3.454c0.263,0.548 0.497,1.112 0.702,1.69l4.882,0c0.449,1.741 0.688,3.567 0.688,5.447c0,2.073 -0.29,4.078 -0.832,5.977l-4.738,0ZM57.376,38.572c3.096,0 5.609,2.58 5.609,5.758c0,3.178 -2.513,5.758 -5.609,5.758c-3.095,0 -5.609,-2.58 -5.609,-5.758c0,-3.178 2.514,-5.758 5.609,-5.758Z" style="fill:#666;"/><path d="M73.559,50.042c-0.205,0.579 -0.439,1.143 -0.702,1.691l3.453,3.453c-0.913,1.549 -2.035,3.009 -3.365,4.339c-1.465,1.465 -3.088,2.678 -4.815,3.637l-3.351,-3.351c-0.548,0.262 -1.112,0.497 -1.691,0.701l0,4.882c-1.741,0.45 -3.566,0.689 -5.447,0.689c-2.072,0 -4.077,-0.29 -5.977,-0.833l0,-4.738c-0.578,-0.204 -1.142,-0.439 -1.69,-0.701l-3.453,3.453c-1.549,-0.913 -3.009,-2.035 -4.339,-3.365c-1.466,-1.465 -2.678,-3.088 -3.638,-4.815l3.352,-3.351c-0.263,-0.548 -0.498,-1.113 -0.702,-1.691l-4.738,0c-0.542,-1.899 -0.833,-3.904 -0.833,-5.977c0,-1.88 0.239,-3.706 0.689,-5.447l4.882,0c0.204,-0.578 0.439,-1.142 0.702,-1.69l-3.352,-3.352c0.96,-1.726 2.172,-3.349 3.638,-4.815c1.33,-1.33 2.79,-2.451 4.339,-3.365l3.453,3.453c0.548,-0.262 1.112,-0.497 1.69,-0.701l0,-4.738c1.899,-0.543 3.905,-0.833 5.977,-0.833c1.881,0 3.706,0.239 5.447,0.689l0,4.882c0.579,0.204 1.143,0.439 1.691,0.701l3.351,-3.351c1.727,0.96 3.35,2.172 4.815,3.637c1.33,1.33 2.452,2.79 3.365,4.339l-3.453,3.454c0.263,0.548 0.497,1.112 0.702,1.69l4.882,0c0.449,1.741 0.688,3.567 0.688,5.447c0,2.073 -0.29,4.078 -0.832,5.977l-4.738,0ZM57.376,35.279c4.867,0 8.818,4.056 8.818,9.051c0,4.995 -3.951,9.051 -8.818,9.051c-4.866,0 -8.817,-4.056 -8.817,-9.051c0,-4.995 3.951,-9.051 8.817,-9.051Z" style="fill:#555;"/><path d="M73.559,50.042c-0.205,0.579 -0.439,1.143 -0.702,1.691l3.453,3.453c-0.913,1.549 -2.035,3.009 -3.365,4.339c-1.465,1.465 -3.088,2.678 -4.815,3.637l-3.351,-3.351c-0.548,0.262 -1.112,0.497 -1.691,0.701l0,4.882c-1.741,0.45 -3.566,0.689 -5.447,0.689c-2.072,0 -4.077,-0.29 -5.977,-0.833l0,-4.738c-0.578,-0.204 -1.142,-0.439 -1.69,-0.701l-3.453,3.453c-1.549,-0.913 -3.009,-2.035 -4.339,-3.365c-1.466,-1.465 -2.678,-3.088 -3.638,-4.815l3.352,-3.351c-0.263,-0.548 -0.498,-1.113 -0.702,-1.691l-4.738,0c-0.542,-1.899 -0.833,-3.904 -0.833,-5.977c0,-1.88 0.239,-3.706 0.689,-5.447l4.882,0c0.204,-0.578 0.439,-1.142 0.702,-1.69l-3.352,-3.352c0.96,-1.726 2.172,-3.349 3.638,-4.815c1.33,-1.33 2.79,-2.451 4.339,-3.365l3.453,3.453c0.548,-0.262 1.112,-0.497 1.69,-0.701l0,-4.738c1.899,-0.543 3.905,-0.833 5.977,-0.833c1.881,0 3.706,0.239 5.447,0.689l0,4.882c0.579,0.204 1.143,0.439 1.691,0.701l3.351,-3.351c1.727,0.96 3.35,2.172 4.815,3.637c1.33,1.33 2.452,2.79 3.365,4.339l-3.453,3.454c0.263,0.548 0.497,1.111 0.702,1.69l4.882,0c0.449,1.742 0.688,3.567 0.688,5.447c0,2.073 -0.29,4.077 -0.832,5.977l-4.738,0Z" style="fill:none;stroke-width:0.72px;stroke:#4a4a4a;"/></g><g id="Spark"><path d="M44.501,2.559c-0.236,-0.881 0.288,-1.788 1.169,-2.025c0.881,-0.237 1.789,0.287 2.026,1.168l0,0.002l0,0l5.181,17.843c0.007,0.022 0.014,0.045 0.02,0.068l0,0.002l0.001,0l-0.001,0c0.267,0.998 -0.41,2.049 -1.513,2.345c-1.103,0.296 -2.216,-0.274 -2.485,-1.273l0,-0.002l0,0l0,0c-0.007,-0.026 -0.013,-0.052 -0.019,-0.078l-4.379,-18.05l0,0Z" style="fill:#333;"/><path d="M70.252,86.101c0.235,0.881 -0.288,1.788 -1.169,2.025c-0.881,0.237 -1.789,-0.287 -2.026,-1.168l0,-0.002l0,0l-5.181,-17.842c-0.008,-0.023 -0.014,-0.046 -0.02,-0.069l-0.001,-0.002l0,0l0,0c-0.267,-0.998 0.411,-2.049 1.513,-2.345c1.104,-0.296 2.217,0.274 2.485,1.273l0.001,0.002l0,0l0,0c0.007,0.026 0.013,0.052 0.019,0.078l4.379,18.05l0,0Z" style="fill:#333;"/><path d="M86.906,12.103c0.641,-0.649 1.688,-0.656 2.338,-0.015c0.65,0.64 0.657,1.688 0.017,2.338l-0.002,0.001l0,0l-12.775,13.491c-0.016,0.018 -0.032,0.035 -0.049,0.052l-0.001,0.001l0,0l0,0c-0.726,0.736 -1.975,0.682 -2.788,-0.12c-0.814,-0.802 -0.884,-2.051 -0.158,-2.787l0.001,-0.001l0,-0.001l0,0c0.019,-0.019 0.038,-0.037 0.058,-0.055l13.359,-12.904l0,0Z" style="fill:#333;"/><path d="M100.008,53.98c0.882,0.234 1.407,1.14 1.174,2.022c-0.234,0.882 -1.14,1.408 -2.023,1.174l-0.001,0l0,0l-18.052,-4.398c-0.023,-0.005 -0.046,-0.011 -0.069,-0.017l-0.002,-0.001l0,0l0,0c-0.999,-0.266 -1.572,-1.377 -1.279,-2.48c0.293,-1.104 1.342,-1.785 2.342,-1.52l0.001,0l0,0l0.001,0c0.026,0.007 0.051,0.015 0.076,0.023l17.832,5.197l0,0Z" style="fill:#333;"/><path d="M14.744,34.68c-0.881,-0.234 -1.407,-1.14 -1.173,-2.022c0.234,-0.882 1.14,-1.408 2.022,-1.174l0.002,0l0,0l18.051,4.398c0.024,0.006 0.047,0.011 0.07,0.017l0.002,0.001l0,0l0,0c0.998,0.266 1.571,1.377 1.279,2.48c-0.293,1.104 -1.342,1.786 -2.342,1.52l-0.002,0l0,0l0,0c-0.026,-0.007 -0.051,-0.014 -0.077,-0.022l-17.832,-5.198l0,0Z" style="fill:#333;"/><path d="M89.435,74.043c0.645,0.645 0.646,1.692 0.002,2.338c-0.645,0.646 -1.693,0.648 -2.339,0.003l-0.001,-0.001l0,0l-7.747,-7.307c-0.017,-0.016 -0.034,-0.033 -0.051,-0.05l-0.001,-0.001l-0.001,0l0,0c-0.73,-0.731 -0.67,-1.979 0.136,-2.788c0.807,-0.808 2.057,-0.872 2.789,-0.142l0.001,0.002l0,0l0,0c0.019,0.019 0.038,0.038 0.056,0.058l7.156,7.888l0,0Z" style="fill:#333;"/><path d="M25.318,14.617c-0.645,-0.645 -0.646,-1.692 -0.002,-2.338c0.645,-0.646 1.692,-0.648 2.339,-0.003l0.001,0.001l0,0l7.682,7.059c0.017,0.016 0.034,0.033 0.051,0.049l0.001,0.002l0,0l0,0c0.731,0.73 0.671,1.979 -0.136,2.787c-0.806,0.809 -2.056,0.873 -2.788,0.142l-0.001,-0.001l0,0l0,0c-0.019,-0.019 -0.038,-0.038 -0.056,-0.058l-7.091,-7.64l0,0Z" style="fill:#333;"/><path d="M47.719,86.961c-0.235,0.881 -1.14,1.406 -2.022,1.172c-0.882,-0.234 -1.408,-1.14 -1.174,-2.022l0,-0.002l0,0l2.444,-10.365c0.005,-0.023 0.011,-0.046 0.017,-0.069l0.001,-0.002l0,0l0,0c0.266,-0.998 1.377,-1.571 2.48,-1.279c1.104,0.293 1.785,1.343 1.52,2.343l0,0.001l0,0l0,0.001c-0.007,0.025 -0.015,0.051 -0.023,0.076l-3.243,10.146l0,0Z" style="fill:#333;"/><path d="M67.033,1.7c0.235,-0.882 1.141,-1.407 2.023,-1.173c0.882,0.234 1.408,1.14 1.174,2.022l0,0.002l0,0l-2.262,10.184c-0.005,0.024 -0.011,0.047 -0.017,0.07l0,0.001l0,0.001l0,0c-0.266,0.998 -1.378,1.571 -2.481,1.278c-1.104,-0.293 -1.785,-1.342 -1.52,-2.342l0.001,-0.002l0,0l0,0c0.007,-0.026 0.014,-0.051 0.022,-0.077l3.06,-9.964l0,0Z" style="fill:#333;"/><path d="M15.673,57.425c-0.879,0.24 -1.789,-0.278 -2.031,-1.158c-0.241,-0.88 0.278,-1.791 1.158,-2.032l0.001,-0.001l0,0l10.188,-3.1c0.023,-0.008 0.046,-0.014 0.069,-0.021l0.001,0l0.001,0l0,0c0.997,-0.272 2.051,0.4 2.352,1.501c0.303,1.101 -0.262,2.218 -1.259,2.491l-0.002,0.001l0,0l0,0c-0.026,0.007 -0.052,0.013 -0.078,0.019l-10.4,2.3l0,0Z" style="fill:#333;"/><path d="M99.079,31.235c0.88,-0.24 1.79,0.279 2.031,1.158c0.242,0.88 -0.277,1.791 -1.157,2.032l-0.002,0.001l0,0l-9.94,3.168c-0.022,0.007 -0.045,0.014 -0.068,0.02l-0.002,0l0,0.001l0,-0.001c-0.997,0.273 -2.051,-0.399 -2.353,-1.5c-0.302,-1.102 0.262,-2.218 1.26,-2.492l0.002,-0.001l0,0l0,0c0.026,-0.007 0.052,-0.013 0.077,-0.019l10.152,-2.367l0,0Z" style="fill:#333;"/></g></svg>